<svg width="512" height="512" viewBox="0 0 512 512" fill="none" xmlns="http://www.w3.org/2000/svg">
<g clip-path="url(#clip0_498_1299)">
<path d="M256 512C397.385 512 512 397.385 512 256C512 114.615 397.385 0 256 0C114.615 0 0 114.615 0 256C0 397.385 114.615 512 256 512Z" fill="#999999"/>
<path d="M275.722 298.702H225.109C225.109 288.356 225.815 279.245 227.226 271.368C228.754 263.373 231.341 256.201 234.985 249.853C238.63 243.504 243.568 237.626 249.799 232.218C255.324 227.632 260.086 223.224 264.083 218.991C268.08 214.759 271.137 210.468 273.253 206.118C275.37 201.768 276.428 197.124 276.428 192.186C276.428 186.072 275.546 181.076 273.782 177.196C272.136 173.316 269.609 170.436 266.199 168.555C262.907 166.556 258.734 165.557 253.678 165.557C249.564 165.557 245.684 166.556 242.039 168.555C238.512 170.553 235.632 173.669 233.398 177.901C231.164 182.016 229.93 187.483 229.695 194.302H169.912C170.264 176.785 174.144 162.559 181.551 151.625C189.075 140.574 199.068 132.52 211.53 127.465C224.11 122.292 238.159 119.705 253.678 119.705C270.843 119.705 285.598 122.351 297.943 127.641C310.287 132.932 319.751 140.809 326.335 151.272C332.919 161.618 336.211 174.374 336.211 189.541C336.211 199.651 334.271 208.469 330.391 215.993C326.629 223.4 321.515 230.337 315.049 236.803C308.7 243.151 301.587 249.97 293.71 257.259C286.891 263.255 282.247 269.369 279.778 275.6C277.309 281.714 275.957 289.414 275.722 298.702ZM217.879 352.313C217.879 343.848 220.936 336.794 227.049 331.151C233.163 325.39 241.099 322.509 250.857 322.509C260.615 322.509 268.551 325.39 274.664 331.151C280.778 336.794 283.834 343.848 283.834 352.313C283.834 360.778 280.778 367.891 274.664 373.651C268.551 379.295 260.615 382.116 250.857 382.116C241.099 382.116 233.163 379.295 227.049 373.651C220.936 367.891 217.879 360.778 217.879 352.313Z" fill="white"/>
</g>
<defs>
<clipPath id="clip0_498_1299">
<rect width="512" height="512" fill="white"/>
</clipPath>
</defs>
</svg>
